<?xml version="1.0" encoding="utf-8"?>
<!-- Generator: Adobe Illustrator 17.0.1, SVG Export Plug-In . SVG Version: 6.00 Build 0)  -->
<!DOCTYPE svg PUBLIC "-//W3C//DTD SVG 1.1//EN" "http://www.w3.org/Graphics/SVG/1.1/DTD/svg11.dtd">
<svg version="1.1" xmlns="http://www.w3.org/2000/svg" xmlns:xlink="http://www.w3.org/1999/xlink" x="0px" y="0px" width="2468px"
	 height="1824px" viewBox="0 0 2468 1824" enable-background="new 0 0 2468 1824" xml:space="preserve">
<g id="Layer_1">
</g>
<g id="Layer_3">
	<g>
		<g>
			<path fill="#801D7F" d="M1487.2,228L476,396.2l-341.3,667.5L8.1,1332l886.4,88c0,0-15,17.2,27.9,25.8s135.2,34.3,141.7,19.3
				c34.3,4.3,959.4,349.9,959.4,349.9l437.9-1296.4l-682.5-339.1L1487.2,228"/>
			<path fill="#1B1464" d="M1487.2,228L476.4,398.9l1.9-1.4L240.9,863.6l-59.4,116.6l-29.7,58.3c-4.9,9.7-10,19.5-14.7,29.1
				l-13.9,29.6L11.8,1333.8l-3.3-5.9l886.5,87.5c2.5,0.2,4.4,2.5,4.1,5c-0.1,0.9-0.4,1.6-0.9,2.3l-0.2,0.3c-0.1,0.2-0.6,0.9-0.8,1.4
				c-0.2,0.6-0.4,1.1-0.5,1.7c-0.1,1.1-0.1,2,0.5,3.1c0.9,2.1,3.7,4.2,6.8,5.8c1.5,0.9,3.2,1.5,4.9,2.2c1.7,0.7,3.5,1.2,5.3,1.8
				c1.8,0.6,3.7,1,5.5,1.4c1.9,0.4,3.7,0.9,5.7,1.3c15.7,3.3,31.2,7,46.7,10.5c15.5,3.5,31,6.9,46.6,9.6c7.8,1.3,15.6,2.5,23.2,3
				c3.8,0.3,7.7,0.4,11.2,0.1c0.9-0.1,1.8-0.1,2.6-0.3l1.2-0.2l1-0.3c1.3-0.4,2.1-1.1,1.8-0.8l4.9-2.8l4.4,1l2.2,0.5l1.9,0.6
				l7.7,2.4l15.2,5l30.2,10.4c20.1,7,40.2,14.1,60.2,21.2c40.1,14.3,80.1,28.8,120.1,43.4l239.7,88.1
				c159.7,59,319.2,118.4,478.7,178l-5.6,2.7l219.4-648l220-647.9l1.4,3.3l-681.7-340.8l0.5,0.1L1487.2,228l291.4-49.3
				c0.2,0,0.4,0,0.5,0.1l683.4,337.4c1.2,0.6,1.8,2,1.4,3.3L2246,1168l-218.5,648.4c-0.8,2.3-3.2,3.5-5.5,2.7c0,0-0.1,0-0.1,0
				c-159.5-59.4-319.1-118.6-478.8-177.4l-239.7-87.8l-120.1-43.3c-20-7.2-40.1-14.3-60.1-21.3l-30.1-10.3l-15.1-4.9l-7.5-2.3
				l-1.9-0.6l-1.7-0.4l-3.4-0.8l4.9-2.8c-0.5,0.9-1,1.8-1.7,2.6c-0.6,0.6-1.3,1.2-2,1.7c-0.7,0.5-1.3,0.7-2,1.1
				c-0.7,0.3-1.3,0.6-1.9,0.7l-1.8,0.5l-1.7,0.3c-1.2,0.2-2.3,0.3-3.4,0.4c-4.4,0.3-8.5,0.2-12.7-0.1c-8.2-0.6-16.2-1.8-24.1-3.2
				c-15.9-2.7-31.5-6.2-47-9.7c-15.6-3.5-31.1-7.3-46.5-10.5c-1.9-0.4-3.9-0.9-6-1.3c-2-0.5-4-0.9-6-1.6c-2-0.6-4-1.1-6-2
				c-2-0.8-4-1.6-6-2.7c-3.8-2.1-8.1-4.7-10.7-9.9c-1.3-2.5-1.7-5.7-1.3-8.5c0.2-1.4,0.6-2.8,1.2-4c0.6-1.3,1.1-2.3,2.3-3.7l3,7.6
				L7.6,1336.1c-2.3-0.2-3.9-2.2-3.7-4.5c0-0.5,0.2-0.9,0.4-1.4l111.9-236.5l14-29.5c4.9-10,9.9-19.5,14.9-29.2l29.9-58.2
				l59.7-116.4L473.6,395c0.4-0.8,1.1-1.3,1.9-1.4L1487.2,228z"/>
		</g>
		<g>
			<path fill="#E2C675" d="M2438.8,299.6l-12.9,244.7l-425,1236.3c0,0-780.2-311.2-1020.6-347.7c-306.9-103-646.1-90.1-929.4-130.9
				c-2.1-36.5-25.2-168.9-25.2-168.9l529.6-988l1378,38.6L2438.8,299.6z"/>
			<path fill="#E2C675" d="M2001,1785.4c-0.6,0-1.2-0.1-1.8-0.3c-7.8-3.1-782.4-311.4-1019.5-347.4c-0.3,0-0.5-0.1-0.8-0.2
				c-205.5-69-423.3-85.7-633.9-101.9c-103.5-7.9-201.3-15.4-294.6-28.9c-2.2-0.3-4-2.2-4.1-4.4c-2.1-35.8-24.9-167-25.2-168.3
				c-0.2-1.1,0-2.1,0.5-3.1l529.6-988c0.9-1.6,2.5-2.6,4.3-2.5l1378,38.6c0.3,0,0.6,0,0.9,0.1L2439.9,295c2.3,0.5,3.8,2.6,3.7,4.9
				l-12.9,244.7c0,0.4-0.1,0.9-0.3,1.3l-425,1236.3c-0.4,1.2-1.3,2.2-2.5,2.8C2002.3,1785.3,2001.6,1785.4,2001,1785.4z
				 M981.5,1428.2c228.9,35,951.4,320.2,1016.6,346.1l423.1-1230.9l12.6-240l-501.1-114.9L558.2,150l-527.5,984
				c2.7,15.4,21.6,125.2,24.7,163.9c91.8,13,188.2,20.4,290.1,28.3C556.7,1342.3,775,1359,981.5,1428.2z"/>
		</g>
		<g>
			<path fill="#F4E09C" d="M549.2,34.6c98.1,38.3,511.6-70.5,750.6-1.8c121.6,35,166.6,61.5,166.6,61.5s208.1-36.6,444.8,6.2
				c191.4,34.6,532.2,193.1,532.2,193.1l-455.4,1284.1c0,0-370.2-164.8-553.1-232.2c-218.2-80.4-420.7-52.2-420.7-52.2
				s-124.4-87.7-313.9-127c-211-43.8-674.6-33.2-674.6-33.2L549.2,34.6z"/>
			<path fill="#F4E09C" d="M1988.1,1582.6c-0.7,0-1.3-0.1-1.9-0.4c-3.7-1.6-372.1-165.6-552.8-232.1
				c-127.2-46.9-249.1-56.7-328.9-56.7c-54.7,0-89.1,4.7-89.5,4.7c-1.2,0.2-2.4-0.1-3.4-0.8c-1.2-0.9-125.9-87.6-312.2-126.2
				c-143.6-29.8-406.8-34.3-550.9-34.3c-72.7,0-122.1,1.1-122.6,1.1c-1.6,0-3.2-0.8-4.1-2.2c-0.9-1.4-1-3.2-0.3-4.7L544.9,32.6
				c1.1-2.3,3.7-3.3,6.1-2.4c13.9,5.4,35.6,8.1,66.2,8.1c48.1,0,111.4-6.4,184.7-13.8C893,15.2,996.4,4.7,1094.3,4.7
				c84.1,0,151.8,7.7,206.9,23.5c110,31.7,157.2,56.2,166.1,61.1c12.5-2.1,92.3-14.4,202.5-14.4c84.2,0,165.7,7,242.2,20.9
				c189.8,34.4,530,191.9,533.4,193.5c2.2,1,3.3,3.6,2.5,5.9l-455.4,1284.1c-0.4,1.3-1.4,2.3-2.6,2.8
				C1989.4,1582.4,1988.7,1582.6,1988.1,1582.6z M1104.4,1283.8c80.6,0,203.7,9.9,332.2,57.3c169.8,62.6,504.9,210.8,548.7,230.3
				l452.2-1275.1c-38.6-17.7-349.6-158.8-527.1-190.9c-76-13.8-156.9-20.7-240.5-20.7c-118.7,0-201.8,14.4-202.6,14.5
				c-1.1,0.2-2.3,0-3.3-0.6c-0.4-0.3-46.1-26.7-165.5-61.1c-54.2-15.6-121-23.2-204.2-23.2c-97.4,0-200.5,10.4-291.5,19.7
				c-73.5,7.4-137,13.9-185.7,13.9c-29,0-50.5-2.4-65.4-7.2L33.4,1128.2c16.7-0.3,58.9-1,115-1c144.5,0,408.4,4.5,552.8,34.4
				c177.1,36.8,299.1,116.6,314.2,126.7C1023.4,1287.4,1056.2,1283.8,1104.4,1283.8z"/>
		</g>
		<g>
			<path fill="#C08329" d="M1466.4,94.4l-27.2,75.3l-27.4,75.3l-27.6,75.2l-27.7,75.1l-27.7,75.1l-28,75l-56.2,150l-28.1,75
				l-28.4,74.9l-56.9,149.7c-9.5,24.9-18.9,49.9-28.5,74.8l-28.8,74.7c-19.3,49.8-38.3,99.7-57.8,149.4l0.1-0.3L1000,1365
				l-16.4,71.2l14.3-71.6l14.5-71.6l0.1-0.2l0-0.1c18.2-50.2,36.9-100.2,55.3-150.3l27.7-75.1c9.2-25.1,18.7-50,28-75l56.2-150
				l28.1-75l28.4-74.9l56.9-149.7l28.5-74.9l28.8-74.7l28.8-74.7l28.9-74.7l29.2-74.6L1466.4,94.4z"/>
		</g>
		<g>
			<path fill="#C08329" d="M30.6,1152.8c10.5-1,20.9-2.2,31.4-2.7l15.7-1l15.7-0.7c10.5-0.5,21-0.9,31.5-1.2
				c10.5-0.3,21-0.6,31.5-0.8c21-0.3,42-0.6,63.1-0.5c21-0.1,42,0.2,63.1,0.5c21,0.2,42,0.9,63.1,1.4c21,0.8,42,1.5,63,2.4
				c21,1.2,42,2,63,3.8c21,1.6,42,3.3,62.9,5.6l31.4,3.2l31.3,3.9c20.9,2.4,41.7,6,62.5,9.2l7.8,1.2l7.8,1.5l15.5,3.1
				c10.3,2.2,20.8,3.8,31,6.7l30.8,7.8l30.1,9.7l15,4.8c5,1.7,9.9,3.7,14.9,5.5l29.7,11.1c9.8,3.8,19.5,8,29.3,12
				c9.7,4,19.5,8,29.1,12.4l28.9,12.8l28.6,13.5c19,9.1,37.8,18.4,56.6,28.2l-2.5-0.6c22-1.1,43.8-1.2,65.6-1.1
				c21.9,0.3,43.7,1,65.5,2.2c10.9,0.6,21.8,1.4,32.7,2.2c10.9,1.1,21.8,1.8,32.6,3.1c10.9,1.3,21.7,2.3,32.6,4
				c10.8,1.5,21.7,2.9,32.4,4.9l16.2,2.7c5.4,0.9,10.7,2.1,16.1,3.2l16.1,3.3c5.4,1.1,10.7,2.5,16,3.8l16,3.8
				c5.5,1.5,10.5,3.1,15.8,4.7l15.6,4.7c5.2,1.7,10.4,3.6,15.5,5.4l15.5,5.4c5.2,1.8,10.4,3.6,15.4,5.6l30.6,11.7
				c10.2,3.8,20.3,8.1,30.4,12.1c10.1,4.1,20.2,8.1,30.3,12.3c20.1,8.5,40.3,16.7,60.2,25.4c20,8.7,40.1,17.2,60,26.1
				c19.9,8.8,39.9,17.6,59.7,26.5c19.9,8.9,39.8,17.9,59.6,26.9l59.4,27.2l59.3,27.5c39.5,18.5,78.9,37,118.2,55.8l-6.6,2.7
				l218.9-621.4l54.7-155.3c9.1-25.9,18.1-51.8,27.5-77.6l28.2-77.4l113-309.4l-105.9,311.9l-26.5,78c-8.9,26-18.1,51.8-27.3,77.7
				l-54.7,155.3l-218.9,621.4c-0.9,2.5-3.6,3.8-6.1,2.9c-0.2-0.1-0.3-0.1-0.5-0.2c-39.3-18.8-78.7-37.3-118.1-55.8l-59.3-27.5
				l-59.4-27.2c-19.8-9-39.6-18-59.5-26.9c-19.8-9-39.8-17.7-59.7-26.5c-19.9-8.9-39.9-17.4-59.9-26c-20-8.7-40.1-16.9-60.1-25.4
				c-10-4.2-20.2-8.2-30.2-12.3c-10.1-4-20.1-8.3-30.3-12.1l-30.4-11.6c-5.1-2-10.2-3.8-15.3-5.6l-15.3-5.4
				c-5.1-1.8-10.2-3.6-15.3-5.3l-15.6-4.7c-5.2-1.5-10.6-3.2-15.5-4.6l-15.8-3.8c-5.3-1.2-10.5-2.6-15.8-3.7l-15.9-3.2
				c-5.3-1-10.6-2.2-15.9-3.1l-16-2.7c-10.7-1.9-21.4-3.3-32.2-4.8c-10.7-1.6-21.5-2.6-32.3-3.9c-10.8-1.3-21.6-2-32.4-3.1
				c-10.8-0.8-21.6-1.6-32.5-2.2c-21.7-1.2-43.4-1.9-65.1-2.2c-21.7-0.2-43.5,0-65,1c-0.9,0-1.8-0.2-2.5-0.6
				c-18.5-9.7-37.3-19-56.2-28l-28.4-13.4l-28.7-12.8c-9.5-4.4-19.2-8.3-28.9-12.3c-9.7-4-19.3-8.1-29.1-11.9l-29.3-11
				c-4.9-1.8-9.7-3.7-14.7-5.4l-15-4.8l-29.9-9.6l-30.3-7.7c-10-2.8-20.4-4.5-30.6-6.6l-15.4-3.1l-7.7-1.5l-7.8-1.2
				c-20.7-3.2-41.3-6.8-62.2-9.2l-31.2-3.9l-31.3-3.2c-20.8-2.4-41.8-3.6-62.7-5.5l-15.7-1.3l-15.7-1.1l-31.4-2.3
				c-20.9-1.4-41.9-2.6-62.8-3.8c-21-0.9-41.9-2.1-62.9-2.8c-21-0.7-42-1.5-63-1.8c-21-0.6-42-0.7-63-0.9c-10.5-0.1-21,0-31.5,0
				c-10.5,0-21,0.1-31.5,0.3l-15.8,0.3l-15.7,0.6C51.5,1151.2,41.1,1152.1,30.6,1152.8z"/>
		</g>
		<g>
			<path fill="#C08329" d="M2429.2,434.9l-51.2,152l-51.5,151.9l-25.7,76c-8.6,25.3-17.5,50.5-26.4,75.7l-53.1,151.3L2008.7,1647
				c-0.9,2.5-3.6,3.8-6.1,2.9c-0.2-0.1-0.4-0.1-0.5-0.2c-39.6-19.5-79.4-38.6-119.3-57.5c-39.9-18.9-79.9-37.6-120-56
				c-80.3-36.7-161-72.5-242.7-105.9c-40.9-16.6-82-32.6-123.6-47c-20.8-7.2-41.8-14-62.9-19.5c-21.2-5.5-42.7-10-64.4-13.8
				c-43.3-7.6-87.1-12.7-131-16.2c-22-1.7-44-3.1-66-4c-22-0.9-44.1-1.6-66-1.6c-0.8,0-1.6-0.2-2.3-0.5c-18.3-9.4-37.1-18.1-56-26.5
				c-18.9-8.5-38-16.5-57.2-24.2c-9.6-3.8-19.2-7.7-28.9-11.3l-14.5-5.5l-14.6-5.3c-9.7-3.6-19.5-7-29.3-10.3
				c-9.8-3.5-19.6-6.6-29.5-9.8c-9.8-3.3-19.7-6.3-29.6-9.3c-9.9-3.1-19.8-5.9-29.8-8.7c-19.9-6-39.9-10.5-60.1-14.2
				c-20.3-3.8-40.8-6.5-61.3-9c-20.6-2.4-41.1-4.5-61.8-6.2c-20.6-1.8-41.3-3-62-4.4l-31-1.9l-31.1-1.8
				c-41.4-2.2-82.9-3.7-124.4-4.9c-41.5-1.1-83-1.8-124.5-2.2c-41.5-0.3-83-0.5-124.5,0c83-3,166.1-4.1,249.1-3.6
				c41.5,0.2,83.1,0.9,124.6,2.2c20.8,0.7,41.5,1.4,62.3,2.6c20.8,1.1,41.5,2.8,62.2,4.5c20.7,1.7,41.4,3.8,62.1,6.2
				c20.7,2.5,41.3,5.3,61.9,9.1c20.6,3.7,41.2,8.3,61,14.4c10,2.8,20,5.7,30,8.8c10,3,19.9,6,29.8,9.3c9.9,3.2,19.8,6.4,29.6,9.9
				c9.8,3.4,19.7,6.8,29.4,10.4l14.7,5.3l14.6,5.6c9.7,3.7,19.4,7.5,29.1,11.4c19.3,7.8,38.5,15.8,57.5,24.4
				c19,8.5,37.9,17.2,56.5,26.8l-2.2-0.5c22.2,0,44.3,0.6,66.5,1.6c22.1,0.9,44.2,2.3,66.3,4c44.1,3.5,88.2,8.6,131.9,16.3
				c21.8,3.9,43.6,8.4,65.1,14c21.6,5.6,42.7,12.5,63.6,19.7c41.9,14.5,83.1,30.6,124.1,47.2c81.9,33.5,162.7,69.3,243.1,106.1
				c40.2,18.4,80.2,37.1,120.2,56c39.9,18.9,79.8,38.1,119.4,57.6l-6.6,2.7l212.5-605.3l53.1-151.3c8.8-25.3,17.6-50.5,26.7-75.6
				l27.4-75.4l54.8-150.7L2429.2,434.9z"/>
		</g>
		<g>
			<rect x="1996.2" y="1645.4" fill="#C08329" width="9.6" height="135.2"/>
		</g>
		<g>
			<path fill="#C08329" d="M43.5,1194.7l61.2-0.5l61.1-0.6c40.8-0.5,81.5-1.1,122.3-1.3c20.4-0.2,40.8,0.5,61.2,1
				c20.4,0.5,40.8,1.1,61.2,2c20.4,0.9,40.8,2,61.2,3.3l30.6,2.3l30.5,2.8l30.5,3.4c10.1,1.3,20.3,2.5,30.4,3.9
				c20.2,2.9,40.5,6.1,60.6,9.8c20.1,3.7,40.2,7.8,60.1,12.5c10,2.4,19.9,4.7,29.8,7.4c9.9,2.6,19.8,5.1,29.6,8.1
				c9.8,2.8,19.7,5.6,29.4,8.8c9.8,3.1,19.5,6.1,29.2,9.5c9.7,3.3,19.4,6.6,28.9,10.3c9.6,3.6,19.2,7,28.7,10.9
				c19,7.5,37.9,15.5,56.5,23.9c9.3,4.3,18.6,8.4,27.8,12.9l27.6,13.5l-2.1-0.5l33.2,0.8c11,0.5,22.1,0.8,33.1,1.5
				c11,0.7,22.1,1.3,33.1,2.3c11,0.9,22.1,1.8,33,3.1l16.5,1.8l16.5,2.1c11,1.3,21.9,3.1,32.9,4.7c11,1.6,21.8,3.7,32.7,5.5
				c10.9,2,21.7,4.1,32.6,6.3c21.7,4.6,43.3,9.4,64.7,14.9c10.7,2.7,21.4,5.5,32.1,8.6l16,4.5l15.9,4.8
				c21.2,6.3,42.2,13.2,63.1,20.4c10.5,3.5,20.8,7.4,31.3,11c10.4,3.7,20.7,7.7,31.1,11.6l30.9,12l30.7,12.4l30.5,12.8l30.4,13.2
				c20.2,8.9,40.3,18,60.4,27.3c10.1,4.6,20,9.4,30,14c10,4.6,20,9.4,29.9,14.1c9.9,4.8,19.8,9.9,29.6,14.9l29.4,15.1
				c19.6,10.1,39.1,20.4,58.7,30.7l58.4,31.2l58.1,31.7l-59.4-29.2l-59.4-29c-19.9-9.6-39.7-19.1-59.7-28.5l-59.9-28
				c-39.6-19.3-79.6-37.7-119.9-55.5l-30.3-13.1l-30.4-12.8l-30.6-12.4l-30.8-12c-10.3-3.8-20.6-7.8-30.9-11.5
				c-10.4-3.6-20.7-7.5-31.1-11c-20.8-7.1-41.7-14-62.8-20.2l-15.8-4.7l-15.9-4.5c-10.6-3-21.2-5.8-31.9-8.5
				c-21.3-5.5-42.7-10.3-64.2-14.8c-10.8-2.1-21.6-4.2-32.4-6.2c-10.8-1.8-21.6-3.8-32.5-5.4c-10.9-1.6-21.7-3.3-32.6-4.6l-16.3-2.1
				l-16.4-1.8c-10.9-1.2-21.9-2.2-32.8-3.1c-10.9-1-21.9-1.5-32.9-2.3c-11-0.7-22-1-32.9-1.5l-33-0.8c-0.7,0-1.5-0.2-2.1-0.5
				l-27.4-13.4c-9.2-4.4-18.4-8.5-27.7-12.8c-18.5-8.3-37.2-16.3-56.1-23.7c-9.4-3.9-18.9-7.3-28.5-10.9
				c-9.5-3.6-19.1-6.9-28.7-10.2c-9.6-3.4-19.3-6.4-28.9-9.5c-9.7-3.2-19.4-6-29.2-8.7c-9.7-2.9-19.6-5.5-29.4-8
				c-9.8-2.7-19.7-5-29.6-7.3c-19.8-4.7-39.7-8.8-59.6-12.5c-20-3.7-40-6.9-60.2-9.7c-10.1-1.4-20.2-2.6-30.2-3.9l-30.3-3.3
				l-30.4-2.8l-30.4-2.3c-20.3-1.3-40.6-2.5-60.9-3.3c-20.3-0.9-40.7-1.5-61-2c-20.4-0.5-40.7-0.5-61.1-1.2
				c-40.7-1.2-81.5-2.1-122.3-3.1l-61.1-1.6L43.5,1194.7z"/>
		</g>
		<g>
			<path fill="#C08329" d="M43.5,1210.8l61-0.3l61-0.1c40.7,0,81.3,0.1,122,0.6c20.3,0.2,40.7,1.3,61,2.2c20.3,0.9,40.6,2.1,61,3.4
				c20.3,1.3,40.6,2.9,60.9,4.7l30.4,2.9l30.4,3.4l30.3,3.9c10.1,1.5,20.2,2.8,30.3,4.4c20.1,3.1,40.2,6.5,60.3,10.3
				c10,2,20,3.8,30,6c10,2.1,19.9,4.2,29.9,6.6c9.9,2.3,19.9,4.6,29.7,7.1c9.9,2.5,19.8,5,29.6,7.7c9.8,2.6,19.7,5.3,29.4,8.3
				c9.8,2.8,19.6,5.7,29.3,8.8c9.7,3,19.5,6.1,29.1,9.4c9.7,3.2,19.3,6.4,28.9,9.9c19.2,6.7,38.3,13.9,57.3,21.4
				c9.5,3.8,19,7.5,28.4,11.4l28.2,11.8l-1.6-0.4c11,0.8,22,1.4,33,2.3c11,1,22,1.8,32.9,3c10.9,1.2,21.9,2.3,32.8,3.8
				c10.9,1.4,21.9,2.8,32.7,4.6l16.3,2.5l16.3,2.8c10.9,1.8,21.7,4,32.5,6c10.8,2,21.6,4.5,32.3,6.8c10.7,2.4,21.5,4.9,32.2,7.5
				c21.4,5.3,42.7,10.9,63.9,16.9c10.6,3.1,21.2,6.1,31.7,9.3c10.5,3.2,21.1,6.4,31.5,9.9c10.5,3.3,20.9,6.8,31.3,10.4
				c10.4,3.5,20.8,7.2,31.2,10.8c20.7,7.3,41.4,15,61.9,22.8c41.1,15.7,81.9,32.2,122.4,49.2c20.3,8.5,40.5,17.1,60.6,25.9
				l60.4,26.3c20,9.1,39.9,18.5,59.8,27.8l59.6,28.1l59.6,28.2l59.5,28.4l-121.2-51.8l-121.2-51.6c-40.1-17.9-80.4-35.3-120.9-52.3
				c-40.5-17-81.1-33.5-122.1-49.1c-20.5-7.8-41-15.4-61.7-22.7c-10.3-3.6-20.7-7.3-31.1-10.8c-10.4-3.5-20.8-7-31.2-10.3
				c-10.4-3.4-20.9-6.7-31.4-9.8c-10.5-3.3-21-6.3-31.5-9.3c-21.1-6.1-42.2-11.6-63.5-16.8c-10.7-2.5-21.3-5-32-7.4
				c-10.7-2.2-21.4-4.7-32.1-6.7c-10.8-2-21.5-4.2-32.3-6l-16.2-2.8l-16.2-2.5c-10.8-1.7-21.7-3.1-32.5-4.5
				c-10.8-1.5-21.7-2.5-32.6-3.8c-10.9-1.2-21.8-2-32.7-3c-10.9-0.9-21.8-1.5-32.8-2.3l0,0c-0.6,0-1.1-0.2-1.6-0.4l-28-11.8
				c-9.4-3.9-18.8-7.5-28.2-11.3c-18.9-7.4-37.8-14.5-57-21.2c-9.5-3.5-19.1-6.6-28.8-9.9c-9.6-3.3-19.3-6.3-28.9-9.3
				c-9.6-3.1-19.4-6-29.1-8.8c-9.7-2.9-19.5-5.6-29.3-8.2c-9.8-2.7-19.6-5.2-29.4-7.7c-9.8-2.5-19.7-4.8-29.6-7.1
				c-9.9-2.4-19.8-4.4-29.7-6.5c-9.9-2.2-19.9-4-29.8-6c-19.9-3.8-39.9-7.2-59.9-10.3c-10-1.6-20.1-2.9-30.1-4.3l-30.2-3.8
				l-30.2-3.4l-30.3-2.9c-20.2-1.8-40.4-3.3-60.7-4.7c-20.2-1.3-40.5-2.4-60.8-3.3c-20.3-1-40.6-1.4-60.8-2.5
				c-40.6-2-81.2-3.6-121.8-5.1l-60.9-2.1L43.5,1210.8z"/>
		</g>
		<g>
			<path fill="#C08329" d="M41.3,1231.2l61-0.3l61,0c40.6,0.1,81.3,0.3,122,0.9c20.3,0.2,40.6,1.4,61,2.4c20.3,1,40.6,2.2,60.9,3.5
				c20.3,1.4,40.6,3,60.9,4.8l30.4,3l30.3,3.4l30.3,3.9c10.1,1.5,20.2,2.8,30.2,4.4c20.1,3.1,40.2,6.5,60.2,10.3
				c20,3.8,40,7.9,59.8,12.5c9.9,2.3,19.9,4.5,29.7,7.1c9.9,2.5,19.8,4.9,29.6,7.6c9.8,2.6,19.7,5.3,29.4,8.2
				c9.8,2.8,19.6,5.6,29.3,8.7c9.7,3,19.5,6,29.1,9.3c9.7,3.2,19.4,6.3,28.9,9.8c19.3,6.7,38.3,13.8,57.4,21.1
				c9.5,3.8,19,7.4,28.4,11.2l28.2,11.7l-1.4-0.4l32.8,3.2c10.9,1.3,21.9,2.4,32.8,3.8c21.8,2.8,43.6,5.9,65.3,9.6l16.3,2.7l16.2,3
				c10.8,1.9,21.6,4.2,32.4,6.4c10.8,2.1,21.5,4.7,32.3,7c10.7,2.4,21.4,5.1,32.1,7.6c10.7,2.7,21.3,5.4,32,8.2
				c10.6,2.9,21.3,5.7,31.8,8.7c10.6,3.1,21.2,6,31.7,9.3c10.5,3.2,21,6.4,31.5,9.7c10.5,3.3,20.9,6.7,31.4,10.2
				c10.4,3.4,20.8,7,31.2,10.6c20.8,7.2,41.4,14.7,62,22.3c41.2,15.3,82,31.5,122.7,48.2c20.3,8.3,40.6,16.8,60.8,25.4l60.6,25.9
				c20.1,8.9,39.9,18.2,59.9,27.4l59.7,27.8l59.6,28l59.5,28.3l-121.2-51.5l-60.6-25.6l-60.7-25.3c-40.2-17.6-80.6-34.7-121.1-51.3
				c-40.6-16.6-81.3-32.8-122.4-48.1c-20.5-7.6-41.1-15.1-61.8-22.3c-10.3-3.6-20.7-7.2-31.1-10.6c-10.4-3.5-20.8-6.9-31.2-10.2
				c-10.4-3.4-20.9-6.5-31.4-9.7c-10.5-3.2-21-6.2-31.5-9.2c-10.5-3.1-21.1-5.8-31.7-8.7c-10.6-2.8-21.2-5.4-31.8-8.2
				c-10.6-2.5-21.3-5.1-31.9-7.5c-10.7-2.3-21.3-4.8-32.1-6.9c-10.7-2.2-21.4-4.4-32.2-6.3l-16.1-3l-16.2-2.7
				c-21.6-3.7-43.2-6.7-64.9-9.5c-10.8-1.4-21.7-2.5-32.6-3.8l-32.7-3.2c-0.5,0-1-0.2-1.5-0.4l-28.1-11.6
				c-9.4-3.8-18.8-7.4-28.3-11.2c-18.9-7.3-37.9-14.3-57-21c-9.5-3.4-19.2-6.5-28.8-9.7c-9.6-3.3-19.3-6.2-29-9.2
				c-9.7-3.1-19.4-5.9-29.1-8.7c-9.7-2.9-19.5-5.5-29.3-8.1c-9.8-2.7-19.6-5.1-29.4-7.6c-9.8-2.5-19.7-4.8-29.6-7
				c-19.7-4.5-39.6-8.6-59.5-12.4c-19.9-3.8-39.9-7.2-59.9-10.3c-10-1.6-20.1-2.9-30.1-4.4l-30.1-3.9l-30.2-3.4l-30.3-3
				c-20.2-1.8-40.4-3.5-60.6-4.8c-20.2-1.4-40.5-2.6-60.8-3.5c-20.3-1-40.6-1.5-60.8-2.6c-40.5-2.2-81.1-3.8-121.7-5.4L41.3,1231.2z
				"/>
		</g>
		<g>
			<path fill="#C08329" d="M43.5,1243l60.8-0.1l60.9,0.4c40.6,0.4,81.2,1.1,121.7,2.4c20.3,0.5,40.6,2.1,60.8,3.4
				c20.3,1.3,40.5,2.9,60.8,4.6c20.2,1.7,40.5,3.7,60.7,5.9l30.3,3.5l30.2,3.9c20.1,2.8,40.2,5.7,60.3,9c20.1,3.3,40.1,6.8,60,10.7
				c10,2,20,3.9,29.9,6c9.9,2.1,19.9,4.2,29.8,6.5c9.9,2.2,19.8,4.5,29.7,6.9c9.9,2.4,19.8,4.8,29.6,7.4c9.8,2.5,19.7,5.1,29.5,7.8
				c9.8,2.6,19.6,5.3,29.4,8.2c9.8,2.8,19.5,5.6,29.2,8.6c9.7,2.9,19.5,5.9,29.1,9c19.4,6.1,38.7,12.5,57.9,19.1l28.8,10.1
				l28.6,10.4l-1-0.3l32.6,4.5c10.8,1.7,21.7,3.2,32.5,5.1c21.6,3.6,43.3,7.5,64.8,11.9l16.1,3.3l16.1,3.5
				c10.7,2.3,21.4,4.8,32.1,7.3c21.4,5,42.6,10.5,63.8,16.2l31.7,8.9c10.5,3.1,21.1,6.1,31.5,9.4c21,6.4,41.9,13,62.7,20
				c10.4,3.4,20.8,6.9,31.2,10.5c10.4,3.5,20.7,7.2,31,10.9c20.7,7.3,41.2,14.9,61.8,22.5c41.1,15.3,81.9,31.3,122.6,47.4
				l121.9,48.9l241.8,102.8l-61.5-23.1l-61.4-23.4l-122.6-47.2l-60.8-24.7l-61-24.4c-40.7-16.1-81.5-32-122.4-47.3
				c-20.5-7.7-41-15.2-61.6-22.5c-10.3-3.7-20.6-7.3-30.9-10.8c-10.3-3.6-20.7-7.1-31.1-10.5c-20.7-6.9-41.6-13.5-62.5-19.9
				c-10.4-3.2-20.9-6.2-31.4-9.3l-31.5-8.9c-21.1-5.7-42.2-11.2-63.5-16.2c-10.6-2.5-21.3-5-31.9-7.3l-16-3.5l-16.1-3.3
				c-21.4-4.4-42.9-8.2-64.4-11.8c-10.8-1.8-21.6-3.4-32.4-5.1l-32.4-4.5c-0.4,0-0.7-0.1-1-0.3l-28.5-10.4l-28.6-10
				c-19.1-6.6-38.3-13-57.6-19.1c-9.6-3.1-19.3-6-29-9c-9.7-3-19.4-5.8-29.1-8.6c-9.7-2.9-19.5-5.5-29.2-8.2
				c-9.7-2.7-19.5-5.3-29.3-7.8c-9.8-2.6-19.6-5-29.4-7.3c-9.8-2.4-19.7-4.7-29.5-6.9c-9.9-2.3-19.8-4.4-29.6-6.5
				c-9.9-2.2-19.8-4.1-29.7-6c-19.9-3.9-39.8-7.4-59.7-10.7c-20-3.3-40-6.2-60-9l-30.1-3.9l-30.2-3.5c-20.1-2.1-40.3-4.1-60.4-5.8
				c-20.2-1.7-40.4-3.2-60.6-4.6c-20.2-1.3-40.4-2.1-60.6-3.6c-40.4-2.7-80.9-4.9-121.4-6.8L43.5,1243z"/>
		</g>
		<g>
			<path fill="#C08329" d="M43.5,1259.1l60.7,1.5l60.7,1.8c40.5,1.3,81,2.8,121.4,4.8c20.2,0.9,40.4,2.7,60.6,4.3
				c20.2,1.6,40.4,3.3,60.6,5.2l30.3,3l30.2,3.3l30.2,3.6l30.2,3.9c40.2,5.4,80.3,11.7,120.2,19.1c10,1.9,19.9,3.7,29.9,5.7
				c9.9,2,19.9,3.9,29.8,6.1c9.9,2.1,19.8,4.2,29.7,6.5c9.9,2.2,19.8,4.5,29.6,6.9c9.9,2.3,19.7,4.7,29.5,7.3
				c9.8,2.5,19.7,5,29.5,7.6c9.8,2.6,19.6,5.2,29.4,8c9.8,2.7,19.5,5.4,29.2,8.4c19.5,5.7,38.9,11.6,58.2,17.8l28.9,9.4l28.8,9.7
				l-0.8-0.2l32.4,5.4c10.8,2,21.6,3.8,32.3,5.9c21.5,4.2,43,8.6,64.3,13.6l16,3.7l16,3.9c10.7,2.6,21.3,5.3,31.9,8.1
				c21.2,5.5,42.3,11.5,63.3,17.7l31.5,9.5l31.3,9.9c20.8,6.7,41.6,13.6,62.3,20.8c20.7,7.1,41.4,14.4,61.9,21.9
				c20.6,7.4,41.1,15,61.6,22.6c41,15.3,81.8,31,122.7,46.7l61.2,23.6l61.2,23.5l60.9,24.5l60.9,24.3l61.1,23.9l61.2,23.7
				l-62.1-21.1l-61.9-21.7l-61.8-22c-20.6-7.4-41.2-14.8-61.7-22.4l-122.4-47.3c-40.8-15.7-81.6-31.4-122.6-46.7
				c-20.5-7.6-41-15.2-61.5-22.6c-20.5-7.4-41.1-14.7-61.8-21.8c-20.6-7.1-41.4-14-62.1-20.7l-31.2-9.9l-31.3-9.5
				c-20.9-6.1-41.9-12.1-63-17.6c-10.6-2.8-21.1-5.5-31.7-8.1l-15.9-3.9l-15.9-3.7c-21.2-4.9-42.6-9.4-64-13.5
				c-10.7-2.1-21.5-3.9-32.2-5.9l-32.3-5.3l0,0c-0.3,0-0.5-0.1-0.8-0.2l-28.7-9.7l-28.8-9.3c-19.3-6.1-38.6-12.1-58-17.7
				c-9.7-2.9-19.4-5.6-29.1-8.3c-9.7-2.8-19.5-5.4-29.2-8c-9.7-2.7-19.5-5.1-29.3-7.6c-9.8-2.5-19.6-4.9-29.4-7.2
				c-9.8-2.4-19.7-4.6-29.5-6.8c-9.8-2.3-19.7-4.4-29.6-6.5c-9.9-2.1-19.8-4.1-29.7-6.1c-9.9-2-19.8-3.8-29.8-5.7
				c-39.7-7.3-79.7-13.6-119.7-19l-30.1-3.9l-30.1-3.6l-30.1-3.2l-30.2-3c-20.1-1.9-40.3-3.6-60.4-5.2c-20.2-1.6-40.4-2.7-60.5-4.5
				c-40.3-3.4-80.7-6.4-121.1-9.2L43.5,1259.1z"/>
		</g>
		<g>
			<path fill="#C08329" d="M57.4,1276.2c19.7,2.5,39.3,5,59,7.1c9.8,1.2,19.7,2.2,29.5,3.2c9.8,1.1,19.7,2.1,29.6,3
				c39.4,3.8,78.9,6.8,118.4,9.3c19.8,1.2,39.5,3,59.2,4.4l59.3,4.1c39.5,2.7,79.1,5.3,118.6,8.7c19.8,1.6,39.5,3.5,59.3,5.6
				l29.6,3.4l29.5,3.9c19.7,2.8,39.3,5.8,58.9,9.3c9.8,1.8,19.6,3.5,29.3,5.5c9.8,1.9,19.5,3.9,29.2,6.1l14.6,3.2l14.5,3.5l14.5,3.5
				l14.4,3.8l14.4,3.8l14.3,4.1l14.3,4.1l14.3,4.3c9.5,2.9,19,5.8,28.4,9c9.4,3.2,18.9,6.1,28.3,9.5c9.4,3.3,18.8,6.5,28.1,10
				l27.9,10.4l-0.9-0.3l32.3,5.8l32.3,6.3c21.5,4.4,42.9,9,64.2,14c10.7,2.5,21.3,5,31.9,7.7c10.6,2.6,21.2,5.3,31.8,8.2
				c21.2,5.6,42.3,11.6,63.3,17.7c21,6.2,41.9,12.7,62.8,19.4c20.8,6.8,41.6,13.7,62.3,20.8c20.7,7.1,41.3,14.4,61.9,21.9
				c20.6,7.4,41.1,15,61.6,22.6c41,15.3,81.8,30.9,122.7,46.6l61.2,23.5l61.3,23.3l60.9,24.2l61,24l61.2,23.6l61.3,23.5l-62.2-20.8
				l-62-21.4l-61.9-21.8c-20.6-7.4-41.2-14.6-61.8-22.2l-122.5-47c-40.8-15.7-81.6-31.3-122.6-46.5c-20.5-7.6-41-15.2-61.5-22.6
				c-20.5-7.4-41.1-14.7-61.8-21.8c-20.6-7.1-41.4-14-62.1-20.7c-20.8-6.6-41.6-13.1-62.6-19.3c-20.9-6.1-41.9-12.1-63-17.7
				c-10.5-2.8-21.1-5.5-31.7-8.2c-10.6-2.7-21.2-5.2-31.8-7.7c-21.2-5-42.6-9.6-63.9-14l-32.1-6.2l-32.2-5.8
				c-0.3-0.1-0.6-0.1-0.9-0.3l-27.8-10.4c-9.3-3.5-18.6-6.6-27.9-9.9c-9.3-3.4-18.7-6.3-28.1-9.4c-9.4-3.2-18.8-6-28.3-8.9
				l-14.2-4.3l-14.2-4.1l-14.3-4l-14.3-3.8l-14.3-3.7l-14.4-3.5l-14.4-3.4l-14.5-3.2c-9.6-2.2-19.3-4.1-29-6
				c-9.7-2-19.4-3.7-29.1-5.4c-19.4-3.5-39-6.4-58.5-9.2l-29.4-3.8l-29.5-3.3c-19.7-2.1-39.4-4-59.1-5.6c-39.4-3.3-78.9-6-118.5-8.7
				l-59.3-4.1c-19.8-1.4-39.6-2.6-59.3-4.6c-39.5-4-78.9-8.5-118.2-13.7c-9.8-1.3-19.7-2.7-29.5-4.1c-9.8-1.4-19.6-2.8-29.4-4.4
				C96.5,1283,77,1279.6,57.4,1276.2z"/>
		</g>
		<g>
			<path fill="#C08329" d="M2420.6,501.4c0,0-6.1,18.5-16.7,50.8c-5.4,16.1-11.9,35.7-19.4,58.2c-7.5,22.5-15.9,47.8-25.4,75.4
				c-9.4,27.6-19.5,57.5-30.3,89.1c-10.8,31.6-22,65-34,99.4c-23.8,68.9-49.2,142.3-74.7,215.8c-25.8,73.3-51.6,146.6-75.9,215.3
				c-12,34.4-24,67.5-35.3,99c-11.3,31.4-21.9,61.2-31.8,88.6c-9.8,27.5-19,52.6-27.1,74.8c-8.1,22.2-15.2,41.6-21,57.6
				c-11.8,31.9-18.5,50.1-18.5,50.1s6.1-18.5,16.7-50.8c5.4-16.1,11.9-35.7,19.4-58.2c7.5-22.5,15.9-47.8,25.4-75.4
				c9.4-27.6,19.5-57.5,30.3-89.1c10.7-31.6,22-65,34-99.4c23.8-68.9,49.3-142.3,74.7-215.8c25.8-73.3,51.7-146.6,75.9-215.3
				c12-34.4,24-67.5,35.3-99c11.3-31.4,21.9-61.2,31.8-88.6c9.8-27.5,19-52.6,27.1-74.8c8.1-22.3,15.2-41.6,21-57.6
				C2413.8,519.6,2420.6,501.4,2420.6,501.4z"/>
		</g>
		<g>
			<path fill="#C08329" d="M2427,563.6c0,0-6.3,18.6-17.2,51.1c-5.5,16.2-12.2,36-20,58.6c-7.7,22.6-16.4,48.2-26.1,76
				c-9.6,27.8-20.1,57.9-31.1,89.8c-11,31.9-22.6,65.5-34.9,100.1c-24.5,69.4-50.5,143.4-76.6,217.3c-26.5,73.8-53,147.7-77.8,216.9
				c-12.3,34.6-24.6,68-36.2,99.7c-11.6,31.7-22.5,61.6-32.6,89.2c-10,27.7-19.4,52.9-27.8,75.3c-8.3,22.4-15.6,41.9-21.5,58
				c-12.1,32.1-19,50.5-19,50.5s6.3-18.6,17.2-51.1c5.5-16.2,12.2-36,19.9-58.6c7.7-22.6,16.4-48.2,26.1-76
				c9.6-27.8,20.1-57.9,31.1-89.8c11-31.9,22.6-65.5,34.9-100.1c24.5-69.4,50.6-143.3,76.6-217.3c26.5-73.8,53-147.7,77.8-216.9
				c12.3-34.6,24.6-68,36.2-99.7c11.6-31.7,22.5-61.6,32.6-89.2c10-27.7,19.4-52.9,27.8-75.3c8.3-22.4,15.6-42,21.5-58
				C2420.1,582,2427,563.6,2427,563.6z"/>
		</g>
		<g>
			<path fill="#C08329" d="M2412,550.8c0,0-5.9,18-16.2,49.4c-5.2,15.7-11.5,34.7-18.8,56.6c-7.2,21.9-15.4,46.5-24.5,73.4
				c-9.1,26.9-18.9,55.9-29.3,86.7c-10.4,30.8-21.3,63.2-32.9,96.7c-23.1,67-47.6,138.5-72.2,209.9c-25,71.3-50,142.6-73.4,209.5
				c-11.6,33.5-23.2,65.7-34.1,96.3c-10.9,30.6-21.2,59.5-30.8,86.2c-9.5,26.7-18.4,51.1-26.2,72.8c-7.9,21.6-14.7,40.5-20.4,56.1
				c-11.4,31-17.9,48.8-17.9,48.8s5.9-18,16.2-49.4c5.2-15.7,11.5-34.8,18.8-56.6c7.2-21.9,15.4-46.5,24.5-73.4
				c9.1-26.9,18.9-55.9,29.3-86.7c10.4-30.8,21.3-63.2,32.9-96.7c23.1-67,47.6-138.5,72.2-209.9c25-71.3,50-142.6,73.4-209.5
				c11.6-33.5,23.2-65.7,34.1-96.3c10.9-30.6,21.2-59.5,30.8-86.2c9.5-26.7,18.4-51.1,26.2-72.8c7.9-21.6,14.7-40.5,20.4-56.1
				C2405.5,568.5,2412,550.8,2412,550.8z"/>
		</g>
		<g>
			<path d="M1364.6,184c-0.4-0.3-37.3-31.1-157-54.6c-95.8-18.9-292.7-6-436.4,3.4c-109.4,7.1-171.9,10.9-184.8,4.6l2.8-5.7
				c12.1,5.8,90.6,0.7,181.6-5.2c144.1-9.4,341.5-22.3,438.1-3.3c121.7,24,158.4,54.8,159.9,56L1364.6,184z"/>
		</g>
		<g>
			<path d="M1325.9,259c-0.3-0.3-35.2-31-154.8-54.6c-95.8-18.9-292.7-6-436.4,3.4c-109.4,7.1-171.9,10.9-184.8,4.6l2.8-5.7
				c12.1,5.8,90.7,0.7,181.7-5.2c144.1-9.4,341.5-22.3,438.1-3.3c121.8,24,156.4,54.8,157.8,56.1L1325.9,259z"/>
		</g>
		<g>
			<path d="M1296.1,334.3c-0.4-0.3-41.5-31.1-161.4-54.7c-95.8-18.9-292.7-6-436.4,3.4c-109.4,7.1-171.9,10.9-184.8,4.6l2.8-5.7
				c12.1,5.9,90.7,0.7,181.7-5.2c144.1-9.4,341.5-22.3,438.1-3.3c121.7,23.9,162.4,54.6,164.1,55.9L1296.1,334.3z"/>
		</g>
		<g>
			<path d="M1269.5,417.9c-0.5-0.4-51.3-39.6-171.3-63.2c-95.8-18.9-292.7-6-436.4,3.4c-109.4,7.1-171.9,10.9-184.8,4.6l2.8-5.7
				c12.1,5.8,90.7,0.7,181.6-5.2c144.1-9.4,341.5-22.3,438.1-3.3c121.7,24,171.9,62.8,174,64.4L1269.5,417.9z"/>
		</g>
		<g>
			<path d="M1242.6,493.3c-0.6-0.4-60.7-39.8-180.9-63.4c-95.8-18.9-292.7-6-436.4,3.4c-109.4,7.1-171.9,10.9-184.8,4.6l2.8-5.7
				c12.1,5.8,90.7,0.7,181.7-5.2c144.1-9.4,341.5-22.3,438.1-3.3c121.5,23.9,182.6,64,183.2,64.4L1242.6,493.3z"/>
		</g>
		<g>
			<path d="M1212.6,568.2c-0.5-0.4-51.3-39.6-171.3-63.2c-95.8-18.9-292.7-6-436.4,3.4C495.5,515.5,433,519.2,420,513l2.8-5.7
				c12.1,5.8,90.6,0.7,181.6-5.2c144.1-9.4,341.5-22.3,438.1-3.3c121.7,24,171.9,62.8,174,64.4L1212.6,568.2z"/>
		</g>
		<g>
			<path d="M1182.4,643.5c-0.6-0.4-57.5-39.8-177.6-63.4c-95.8-18.9-292.7-6-436.4,3.4c-109.4,7.1-171.9,10.9-184.8,4.6l2.8-5.7
				c12.1,5.8,90.6,0.7,181.6-5.2c144.1-9.4,341.5-22.3,438.1-3.3c121.6,23.9,179.5,64,180,64.4L1182.4,643.5z"/>
		</g>
		<g>
			<path d="M1156.7,725.1c-0.7-0.5-68.2-46.2-188.4-69.9c-95.8-18.9-292.7-6-436.4,3.4c-109.4,7.1-171.9,10.9-184.8,4.6l2.8-5.7
				c12.1,5.9,90.7,0.7,181.7-5.2C675.6,642.8,873,630,969.6,649c121.6,23.9,190.1,70.4,190.7,70.9L1156.7,725.1z"/>
		</g>
		<g>
			<path d="M1115.8,802.3c-0.6-0.5-63.9-48.3-183.9-71.9c-95.8-18.9-292.7-6-436.4,3.4c-109.4,7.1-171.9,10.9-184.8,4.6l2.8-5.7
				c12.1,5.8,90.6,0.7,181.6-5.2c144.1-9.4,341.5-22.3,438.1-3.3c121.6,23.9,185.9,72.6,186.6,73.1L1115.8,802.3z"/>
		</g>
		<g>
			<path d="M1085.9,875.4c-0.7-0.5-70.3-46.2-190.5-69.9c-95.8-18.9-292.7-6-436.4,3.4c-109.4,7.1-171.9,10.9-184.8,4.6l2.8-5.7
				c12.1,5.8,90.7,0.7,181.7-5.2c144.1-9.4,341.5-22.3,438.1-3.3c121.5,23.9,192.1,70.4,192.8,70.8L1085.9,875.4z"/>
		</g>
		<g>
			<path d="M1055.8,956.9c-0.8-0.5-76.7-52.6-196.9-76.3c-95.8-18.9-292.7-6-436.4,3.4c-109.4,7.1-171.9,10.9-184.8,4.6l2.8-5.7
				c12.1,5.8,90.7,0.7,181.7-5.2c144.1-9.4,341.5-22.3,438.1-3.3c121.6,23.9,198.6,76.8,199.3,77.3L1055.8,956.9z"/>
		</g>
		<g>
			<path d="M1019.4,1040.7c-0.8-0.5-84.7-53.2-205-76.8c-95.2-18.7-287.9-9.1-428.6-2.1c-109.3,5.5-171.7,8.3-184.8,1.9l2.8-5.7
				c12.2,5.9,90.7,2,181.7-2.6c141-7.1,334.1-16.7,430.1,2.2c121.5,23.9,206.3,77.2,207.1,77.7L1019.4,1040.7z"/>
		</g>
		<g>
			<path d="M976.5,1124.4c-0.8-0.5-84.7-53.2-205-76.8c-95.2-18.7-287.9-9.1-428.6-2.1c-109.3,5.5-171.7,8.2-184.8,1.9l2.8-5.7
				c12.2,5.9,90.7,2,181.7-2.6c141-7.1,334.1-16.7,430.1,2.2c121.5,23.9,206.3,77.2,207.1,77.7L976.5,1124.4z"/>
		</g>
		<g>
			<path d="M2314.5,369.2c-49.7-14.4-105.6-37.4-164.7-61.7c-180.2-74.1-404.5-166.2-653.5-103.6l-1.6-6.2
				c251.1-63.2,476.4,29.4,657.5,103.8c59,24.2,114.6,47.1,164.1,61.5L2314.5,369.2z"/>
		</g>
		<g>
			<path d="M2288.7,442.2c-49.7-14.4-105.6-37.4-164.7-61.7c-180.2-74.1-404.5-166.2-653.5-103.6l-1.6-6.2
				c251.1-63.2,476.4,29.4,657.5,103.8c59,24.2,114.6,47.1,164.1,61.5L2288.7,442.2z"/>
		</g>
		<g>
			<path d="M2263,515.2c-49.7-14.4-105.6-37.4-164.7-61.7c-180.2-74.1-404.5-166.2-653.5-103.6l-1.6-6.2
				c251.1-63.2,476.4,29.4,657.5,103.8c59,24.2,114.6,47.1,164.1,61.5L2263,515.2z"/>
		</g>
		<g>
			<path d="M2237.2,588.2c-49.7-14.4-105.6-37.4-164.7-61.7C1892.3,452.4,1668,360.3,1419,422.9l-1.6-6.2
				c251.1-63.2,476.4,29.4,657.5,103.8c59,24.2,114.6,47.1,164.1,61.5L2237.2,588.2z"/>
		</g>
		<g>
			<path d="M2211.5,661.1c-49.7-14.4-105.6-37.4-164.7-61.7c-180.2-74.1-404.5-166.2-653.5-103.6l-1.6-6.2
				c251.1-63.2,476.4,29.4,657.5,103.8c59,24.2,114.6,47.1,164.1,61.5L2211.5,661.1z"/>
		</g>
		<g>
			<path d="M2185.7,734.1c-49.7-14.4-105.6-37.4-164.7-61.7c-180.2-74.1-404.5-166.2-653.5-103.6l-1.6-6.2
				c251.1-63.2,476.4,29.4,657.5,103.8c59,24.2,114.6,47.1,164.1,61.5L2185.7,734.1z"/>
		</g>
		<g>
			<path d="M2155.7,813.5c-49.7-14.4-105.6-37.4-164.7-61.7c-180.2-74.1-404.5-166.2-653.5-103.6l-1.6-6.2
				c251.1-63.2,476.4,29.4,657.5,103.8c59,24.2,114.6,47.1,164.1,61.5L2155.7,813.5z"/>
		</g>
		<g>
			<path d="M2134.2,890.8c-49.7-14.4-105.6-37.4-164.7-61.7C1789.3,755.1,1565,662.9,1316,725.6l-1.6-6.2
				c251.1-63.2,476.4,29.4,657.5,103.8c59,24.2,114.6,47.1,164.1,61.5L2134.2,890.8z"/>
		</g>
		<g>
			<path d="M2104.2,974.5c-49.7-14.4-105.6-37.4-164.7-61.7c-180.2-74.1-404.5-166.2-653.5-103.6l-1.6-6.2
				c251.1-63.2,476.4,29.4,657.5,103.8c59,24.2,114.6,47.1,164.1,61.5L2104.2,974.5z"/>
		</g>
		<g>
			<path d="M2072.1,1091.5c-49.1-16.4-104-41.5-162.1-68.2c-177.1-81.1-397.6-182.1-648.9-129.4l-1.3-6.2
				c253.4-53.2,474.9,48.3,652.9,129.8c57.9,26.5,112.7,51.6,161.5,67.9L2072.1,1091.5z"/>
		</g>
		<g>
			<path d="M2033.3,1184.5c-49.1-16.5-104-41.7-162-68.4c-177-81.4-397.3-182.7-648.7-130.4l-1.3-6.2
				c253.5-52.8,474.8,49,652.7,130.9c57.9,26.6,112.6,51.8,161.4,68.2L2033.3,1184.5z"/>
		</g>
		<g>
			<path d="M1992.2,1291.9c-48.7-17.5-103-43.9-160.5-71.9c-175.2-85.2-393.3-191.3-645.8-144.3l-1.2-6.3
				c254.5-47.3,473.7,59.3,649.7,144.9c57.3,27.9,111.5,54.2,159.9,71.6L1992.2,1291.9z"/>
		</g>
		<g>
			<path d="M1955.7,1384.2c-48.7-17.5-103-43.9-160.5-71.9c-175.2-85.2-393.3-191.3-645.8-144.3l-1.2-6.3
				c254.5-47.3,473.7,59.3,649.7,144.9c57.3,27.9,111.5,54.2,159.9,71.6L1955.7,1384.2z"/>
		</g>
	</g>
</g>
</svg>
