<?xml version="1.0" encoding="utf-8"?>
<!-- Generator: Adobe Illustrator 23.0.5, SVG Export Plug-In . SVG Version: 6.00 Build 0)  -->
<svg version="1.1" xmlns="http://www.w3.org/2000/svg" xmlns:xlink="http://www.w3.org/1999/xlink" x="0px" y="0px"
	 viewBox="0 0 355.5 413.8" style="enable-background:new 0 0 355.5 413.8;" xml:space="preserve">
<style type="text/css">
	.st0{fill-rule:evenodd;clip-rule:evenodd;fill:#ECB79F;}
	.st1{fill-rule:evenodd;clip-rule:evenodd;fill:#D05F2E;}
	.st2{fill-rule:evenodd;clip-rule:evenodd;fill:#E49170;}
	.st3{fill-rule:evenodd;clip-rule:evenodd;fill:#009BAC;}
	.st4{fill-rule:evenodd;clip-rule:evenodd;fill:#8DCFD9;}
	.st5{fill-rule:evenodd;clip-rule:evenodd;fill:#BCD2DF;}
	.st6{fill-rule:evenodd;clip-rule:evenodd;fill:#819BAE;}
	.st7{fill-rule:evenodd;clip-rule:evenodd;fill:#006687;}
	.st8{fill-rule:evenodd;clip-rule:evenodd;fill:#67C3CF;}
	.st9{fill-rule:evenodd;clip-rule:evenodd;fill:#4A5569;}
	.st10{fill-rule:evenodd;clip-rule:evenodd;fill:#C67661;}
	.st11{fill-rule:evenodd;clip-rule:evenodd;fill:#853F22;}
	.st12{fill-rule:evenodd;clip-rule:evenodd;}
</style>
<g>
</g>
<g>
	<g>
		<g>
			<path class="st0" d="M191.1,114.8c4.5-1.2,9-1.9,13.7-1.9c4.5,0,8.9,0.6,13.3,1.8l1.3,0.3l-0.2,1.3c-0.5,4.2-1.2,10.2-3.3,13.9
				c-2.5,4.3-7.6,4.9-12.1,4.9c-4.3,0-8.9-0.8-11.2-4.8c-2.2-3.8-2.5-9.8-2.5-14.1l0-1.2L191.1,114.8z"/>
			<path class="st0" d="M150.6,113c4.6,0,9.2,0.6,13.7,1.9l1.1,0.3l0,1.2c0,4.3-0.1,10.5-2.3,14.3c-2.3,4.1-7.5,4.6-11.7,4.6
				c-4.5-0.1-9.4-0.9-11.9-5.1c-2.1-3.6-2.8-9.5-3.3-13.7l-0.2-1.3l1.3-0.3C141.7,113.6,146.1,113,150.6,113z"/>
			<path class="st1" d="M137.5,50l-1.9,1.8c-6.6,6.1-11.7,12.7-15.2,21c-3,7-4.5,14.6-5.3,22.1l-0.2,1.9l-1.8-0.7
				c-1.2-0.4-2.4-0.6-3.6-0.5c-2.6,0.3-4.5,1.8-5.9,3.9l-2.2,3.2l-0.5-3.9c-0.9-6.6-1.4-13.2-1.5-19.9c0-12,1.6-25.3,7-36.1
				c3.8-7.7,9.7-14.5,18.3-16.7c2-0.5,4-0.8,6-0.8l0.9,0l0.7-0.6c12-9.3,26-16.2,41.3-17.6c14.2-1.3,27.8,2.3,39.7,9.8l0.3,0.1
				c11.9,6.3,25.5,11,39.1,10.3l3.1-0.2l-1.7,2.5c-2.2,3.3-4.9,6.3-8.1,8.8c-2.2,1.7-4.5,3-7,4.4l-0.9,0.5l-0.4,0
				c-1.6-0.1-3.2-0.2-4.8-0.3c-10.6-0.9-20.3-3.3-30.1-7.6c-3.9-1.7-7.5-3.6-11.2-5.6c-3.2-1.7-6.4-3.5-9.7-4.8
				c-8.1-3.2-15.7-2.9-24.1-1.3c-2.4,0.5-4.7,1.1-7,1.8c-2.4,0.8-4.7,1.7-6.9,2.8c-1.4,0.6-1.9,2.3-1.3,3.6c0.6,1.4,2.3,1.9,3.6,1.3
				c2-1,4.1-1.8,6.3-2.5c2.1-0.7,4.2-1.2,6.3-1.6c7.5-1.4,14.3-1.6,21.5,1.2c3,1.2,5.9,2.8,8.8,4.3c3.8,2.1,7.6,4.1,11.6,5.8
				c10.3,4.5,20.6,7.1,31.8,8c8.2,0.7,16.4,0.4,24.6-0.1l3.3-0.2l-2,2.7c-1.4,1.9-2.9,3.7-4.5,5.4c-2.5,2.8-5.9,6.1-9.2,8l-0.3,0.2
				l-0.4,0c-3.6,0.2-7.2,0.3-10.8,0.4c-9.5,0-19.2-0.8-28.5-2.8c-1.5-0.3-2.9,0.6-3.2,2.1c-0.3,1.5,0.6,2.9,2.1,3.2
				c9.7,2.2,19.7,3,29.7,3c4,0,7.9-0.2,11.9-0.4l0,0l0,0c0.1,0,0.2,0,0.3,0l0,0l0,0c1.8-0.1,3.6-0.3,5.5-0.4l7.2-0.7l-6.3,3.5
				C236.9,80.6,220,84,203.1,82.6c-24.1-2-47-13.4-63.7-30.7L137.5,50z"/>
			<path class="st2" d="M167.6,110.2c-5.5-1.7-11.2-2.6-17-2.6c-5.3,0-10.6,0.8-15.8,2.3l-0.5,0.1l-0.4-0.1c-1.4-0.5-2.7-1-4.1-1.5
				c-2.5-1-4.9-2-7.4-3.1L122,105l-0.3-0.4c-0.4-0.8-0.9-1.5-1.4-2.2l-0.3-0.4l0-0.5c0.5-9,1.8-18.3,5.3-26.6
				c2.6-6.2,6.2-11.4,10.9-16.2l1.1-1.1l1.1,1.1C155.8,75.2,178.7,86,202.7,88c16.6,1.4,33.2-1.5,48.2-9l1.9-1l0.3,2.1
				c0.7,5.2,1,10.5,0.9,15.8l-0.1,4.5l-2.5-2.5c-1.3-1.2-2.8-2-4.6-2.2c-2.4-0.3-4.7,0.7-6.6,2.1c-1.8,1.4-3.4,3.3-4.7,5.2l-0.3,0.5
				l-0.5,0.2c-2.6,0.8-5.1,1.7-7.5,2.8c-2.1,0.9-4.1,1.9-6,3.1l-0.6,0.3l-0.6-0.2c-5-1.4-10.1-2.1-15.2-2.1
				c-5.6,0-11.2,0.9-16.6,2.5l-0.4,0.1l-0.4-0.1c-6.3-1.9-12.6-1.8-18.9,0.1l-0.5,0.1L167.6,110.2z"/>
			<path class="st2" d="M122.3,143.6l-2.2-0.1c-3.8-0.2-7-1.6-9.5-4.5c-3.2-3.7-4.7-9.1-5.5-13.8l0-0.1l0-0.1
				c-0.1-1.6-0.2-3.2-0.2-4.8l0-0.1l0-0.1c0-0.1,0-0.3,0-0.4l0-0.1l0-0.1c0-4.8,0.3-12.7,3.1-16.8c0.5-0.7,1.2-1.5,2.1-1.6
				c1-0.1,2,0.5,2.7,1.1c0.8,0.6,1.5,1.3,2.1,2l0.1,0.1l0,0.1c0.1,0.1,0.2,0.3,0.3,0.4l0.1,0.1l0,0.1c3.1,4.1,5.1,9.8,6.3,14.7
				c0.3,1.4,1.8,2.4,3.3,2c1.4-0.3,2.3-1.8,2-3.3c-0.2-1-0.5-1.9-0.8-2.9l-0.9-3l2.9,1.1c0.5,0.2,0.9,0.3,1.4,0.5l0.9,0.3l0.1,0.9
				c0.6,5.5,1.4,12.7,4.2,17.5c3.6,6.2,9.7,7.6,16.5,7.7c6.7,0.1,13-1.1,16.5-7.3c2.7-4.7,3-11.6,3-17l0-1.2l1.2-0.3
				c3.8-0.9,7.6-1,11.4-0.2l1.2,0.2l0,1.2c0,5.4,0.4,12.2,3.2,17c3.5,6,9.3,7.5,15.9,7.5c6.9,0,13.1-1.3,16.8-7.5
				c3-5.1,3.7-12.9,4.4-18.7l0.1-0.8l0.7-0.4c0.9-0.5,1.9-1,2.8-1.4l3.2-1.5l-1.1,3.3c-0.5,1.5-0.9,3-1.3,4.6
				c-0.3,1.4,0.6,2.9,2,3.3c1.4,0.3,2.9-0.6,3.3-2c1-4.1,2.4-8.3,4.5-11.9l0.1-0.1l0.1-0.1c0.1-0.2,0.2-0.4,0.3-0.5l0-0.1l0.1-0.1
				c1-1.7,2.3-3.4,3.9-4.6c0.8-0.6,1.7-1.2,2.7-1.1c0.9,0.1,1.6,0.9,2.1,1.6c2.8,4.1,3.1,12,3.1,16.8l0,0.2c0,1.8-0.1,3.5-0.2,5.3
				l0,0.1l0,0.1c-0.8,4.7-2.4,10.1-5.5,13.8c-2.5,2.9-5.7,4.4-9.5,4.5l-2.2,0.1l-0.4,2.2c-2.5,15.5-7.7,32.5-18.8,44.1
				c-9.8,10.3-22.6,14.3-36.7,14.3c-14,0-26.8-4-36.7-14.3c-11.1-11.6-16.3-28.6-18.8-44.1L122.3,143.6z"/>
			<path class="st3" d="M170,271H77.9c-3.4,0-6.6,1.3-9,3.7c-2.4,2.4-3.7,5.6-3.7,9V350l-2.6-2.3c-0.5-0.5-1.1-1-1.7-1.4
				c-1.1-1-2.8-0.8-3.8,0.3c-1,1.1-0.8,2.9,0.3,3.8c1.5,1.2,2.8,2.5,4.2,3.9c1.1,1.1,2.1,2.2,3.1,3.4l0.4,0.4v47.7l-1.6-0.1
				c-13.6-1.1-30.4-4.6-38.8-16.5c-9.1-13-5.2-31.7-0.5-45.5c8.1-23.9,17.9-49.8,33.7-69.7c16.1-20.3,36.5-31.7,62.4-34.6l0.8-0.1
				l0.5,0.6c10.8,11.8,24.1,23,39.4,28.2L170,271z"/>
			<path class="st2" d="M179.6,245c-12.1,0-23.3-4.7-33.1-11.5l-1.2-0.8l0.8-1.2c2.3-3.8,4.1-7.9,5.4-12.2c1.1-4,1.7-8.2,1.8-12.4
				l0-2.2l2.1,0.8c7.3,2.9,15.1,4,22.9,4c8.9,0,17.7-1.4,25.7-5.2l2.2-1l0,2.4c-0.1,9.3,2.3,17.9,7.1,25.8l0.8,1.2l-1.2,0.8
				C202.9,240.3,191.8,245,179.6,245z"/>
			<path class="st4" d="M179,265.5c-19.8,0-36.9-12.4-50.1-26l-1.8-1.8l2.5-0.7c0.7-0.2,1.5-0.4,2.2-0.6c2.1-0.6,4.2-1.1,6.3-1.6
				l0.7-0.2l1.2,0.9c11.6,8.8,24.9,15,39.7,15c14.1,0,26.9-5.7,38.2-13.9l0.5-0.4l12,2.1l-2.1,2.1
				C215.2,253.6,198.4,265.5,179,265.5z"/>
			<path class="st3" d="M297,350.3c2.6-2.2,5.5-4.2,8.6-5.7c1.3-0.7,1.9-2.3,1.2-3.6c-0.7-1.3-2.3-1.9-3.6-1.2
				c-3.5,1.7-6.7,3.9-9.7,6.4c-0.6,0.5-1.2,1.1-1.9,1.6l-2.6,2.3v-63.9c0-4-1.6-7.9-4.5-10.8c-2.9-2.9-6.7-4.5-10.8-4.5h-85.9l8.9-3
				c15.4-5.2,28.7-16.4,39.4-28.2l0.5-0.6l0.8,0.1c17.7,1.9,34.4,7,48.3,18.5c11.7,9.7,19.7,22.5,27.4,35.4l0,0.1l0,0.1
				c11,22.3,28.1,60.8,21.7,86.2c-5.2,20.7-25.2,26.1-44.3,26.4l-1.6,0v-47.8l0.4-0.4C291.8,355.1,294.2,352.5,297,350.3z"/>
			<path class="st5" d="M70.6,283.7c0-1.9,0.8-3.8,2.1-5.1c1.4-1.4,3.2-2.1,5.1-2.1h196c2.6,0,5.1,1,6.9,2.9
				c1.8,1.8,2.9,4.3,2.9,6.9V406H70.6V283.7z"/>
			<path class="st6" d="M164,358.5c3.5,3.5,8.4,5.7,13.7,5.7c5.4,0,10.2-2.2,13.7-5.7c3.5-3.5,5.7-8.4,5.7-13.7s-2.2-10.2-5.7-13.7
				c-3.5-3.5-8.4-5.7-13.7-5.7c-5.4,0-10.2,2.2-13.7,5.7c-3.5,3.5-5.7,8.4-5.7,13.7S160.5,355,164,358.5z"/>
			<path class="st7" d="M24,349.4c-4.9,17-4.3,30,1.9,38.9c6.4,9.1,18.9,14.4,37.6,15.9v-21.6C42.7,378.6,29.5,367.5,24,349.4z"/>
			<path class="st7" d="M290.6,379.6v24.8c24.5-0.5,38.8-8.9,42.9-25.3c1.2-4.7,1.6-10,1.2-16C322.1,371.4,307.4,376.9,290.6,379.6z
				"/>
			<path class="st7" d="M292.5,344.9c3.3-2.7,6.6-4.9,10-6.6c2.1-1,4.6-0.2,5.7,1.9c-2.7-12.9-8.5-27.5-17.6-43.7v49.9
				C291.2,346,291.9,345.5,292.5,344.9z"/>
			<path class="st7" d="M63.6,346.6v-44c-7.7,11.7-12.7,23.6-15.1,35.6c1-0.4,2.2-0.3,3.2,0.2l0.8,0.4c0.1,0.1,0.4,0.2,0.8,0.5
				c2.1,1.1,2.8,3.7,1.7,5.7c-0.1,0.1-0.1,0.2-0.2,0.3c0.3,0.2,0.6,0.4,0.8,0.6c0.1-0.1,0.1-0.2,0.2-0.3c1.5-1.8,4.2-2,6-0.5
				C62.5,345.6,63,346.1,63.6,346.6z"/>
			<path class="st8" d="M32.7,324.6c7.6-18.1,18.1-33.4,31.7-45.7c0.7-2,1.9-3.9,3.4-5.4c2.2-2.2,5.2-3.7,8.4-4.1
				c14.2-10,31-17.4,50.5-22.3c-2-2-4.1-4.1-6.1-6.3c-27.9,3.1-47.1,15.9-61.4,34C48.1,288.9,39.8,306.1,32.7,324.6z"/>
			<path class="st8" d="M229.4,249c45.7,0.1,79.9,32.3,102.6,96.6c-3.5-14.5-10.2-31.7-20-51.6c-7.8-13.1-15.6-25.5-27.1-35
				c-11-9.1-25.7-15.8-47.5-18.1C234.7,243.7,232,246.4,229.4,249z"/>
			<path class="st6" d="M279.6,280.3c-24.7,21.6-51.1,40.1-79,55.6c1.1,2.8,1.7,5.8,1.7,8.9c0,6.8-2.7,12.9-7.2,17.3
				c-4.4,4.4-10.6,7.2-17.3,7.2c-6.8,0-12.9-2.7-17.3-7.2c-1.5-1.5-2.8-3.2-3.9-5c-26.8,11.2-55,19.9-84.5,26.1v21.2h210V286.2
				C282.1,283.9,281.2,281.8,279.6,280.3C279.7,280.3,279.6,280.3,279.6,280.3z"/>
			<path class="st9" d="M191.6,357.6c3.6-3.6,5.9-8.7,5.9-14.2c0-2.1-0.3-4.2-0.9-6.1c-11.7,6.2-23.7,12-35.9,17.4
				c0.7,1.1,1.6,2.1,2.5,3c3.6,3.6,8.7,5.9,14.2,5.9C183,363.5,188,361.2,191.6,357.6z"/>
			<path class="st10" d="M151.5,224c18.7-6.1,37.5-6.1,56.2,0c0,0,0.1,0,0.1,0c-2.2-5.8-3.3-11.9-3.2-18.3
				c-7.7,3.6-16.5,5.4-26.4,5.4c-8.7,0-16.5-1.3-23.5-4.1c0,4.4-0.7,8.6-1.8,12.8C152.5,221.2,152,222.6,151.5,224z"/>
			<path class="st10" d="M142.6,188.8c8.9,9.2,20.7,13.8,35.6,13.8c13.5,0,24.6-3.8,33.1-11.4c-51.1,12.6-78.7-11.3-82.7-71.7
				c-0.2,1.7-1.5,3.2-3.2,3.6c-2.3,0.5-4.6-0.9-5.1-3.1c-1.5-6.3-3.7-11.1-6-14.2c-0.2-0.2-0.3-0.4-0.5-0.6
				c-0.6-0.7-1.2-1.3-1.9-1.8c-0.7-0.5-1.3-0.8-1.6-0.8c-0.3,0-0.6,0.3-1,0.9c-1.7,2.5-2.9,7.7-2.8,16c0,0.2,0,0.5,0,0.7
				c0,1.5,0.1,3.1,0.2,4.7c1.1,5.9,2.8,10.2,5.2,13.1c2.1,2.5,4.9,3.9,8.4,4l3.4,0.2l0.6,3.4C127.4,164.9,133.5,179.3,142.6,188.8z"
				/>
			<path class="st11" d="M113.6,94.7c0.9-8.8,2.7-16.1,5.4-22.5c3.5-8.4,8.6-15.2,15.6-21.5l3-2.8c-0.6-2.2-1.3-4.3-1.9-6.6
				c-1.7,0.5-3.5-0.1-4.6-1.6c-1.4-1.9-0.9-4.5,1-5.9c0.4-0.3,0.8-0.6,1.1-0.8c0.1-0.1,0.2-0.1,0.3-0.2c-0.5-1.9-0.9-3.9-1.4-5.8
				l-1.5,0c-1.9,0-3.8,0.2-5.7,0.7c-7.3,1.9-13.2,7.4-17.3,15.8c-4.4,9-6.8,21.1-6.8,35.4c0,6.2,0.5,12.8,1.4,19.7
				c1.9-2.7,4.3-4.2,7-4.5C110.8,94,112.2,94.2,113.6,94.7z"/>
			<path class="st12" d="M157,170.6c-1.4-1.9-1.1-4.5,0.8-5.9c1.9-1.4,4.5-1.1,5.9,0.8c1.1,1.5,2.5,2.8,4,3.9l0,0
				c3.4,2.5,7.7,4.1,12.1,4.3c4.3,0.2,8.7-0.9,12.5-3.8c1.6-1.2,3-2.6,4.3-4.4c1.4-1.9,4-2.3,5.9-0.9c1.9,1.4,2.3,4,0.9,5.9
				c-1.8,2.5-3.8,4.5-6,6.1c-5.5,4.2-11.8,5.8-18,5.5c-6.1-0.3-12-2.5-16.7-6h0C160.6,174.6,158.6,172.7,157,170.6L157,170.6z
				 M177.8,320.3c6.8,0,12.9,2.7,17.3,7.2c4.4,4.4,7.2,10.6,7.2,17.3c0,6.8-2.7,12.9-7.2,17.3c-4.4,4.4-10.6,7.2-17.3,7.2
				c-6.8,0-12.9-2.7-17.3-7.2c-4.4-4.4-7.2-10.6-7.2-17.3c0-6.8,2.7-12.9,7.2-17.3C164.9,323,171,320.3,177.8,320.3L177.8,320.3z
				 M189.1,333.5c-2.9-2.9-6.9-4.7-11.3-4.7c-4.4,0-8.4,1.8-11.3,4.7c-2.9,2.9-4.7,6.9-4.7,11.3s1.8,8.4,4.7,11.3
				c2.9,2.9,6.9,4.7,11.3,4.7c4.4,0,8.4-1.8,11.3-4.7c2.9-2.9,4.7-6.9,4.7-11.3S192,336.4,189.1,333.5L189.1,333.5z M4.3,413.8h336
				c2.3,0,4.3-1.9,4.3-4.3c0-2.3-1.9-4.3-4.3-4.3h-16.3c9.2-5.3,15.1-13.3,17.8-24.1c5.1-20.5-2.3-50.8-22.2-91.1l-0.2-0.3
				c-8.3-13.9-16.5-27-29.1-37.4c-12.6-10.4-29.2-17.8-53.9-20.2l-16.2-2.8c-5.4-8.1-7.7-17-6.9-26.7c0.1-0.7-0.1-1.3-0.3-1.9
				c2.5-1.8,4.8-3.8,7-6.1c9.8-10.2,16.5-25.1,20.1-44.6c4.4-0.9,8.1-3.1,11-6.6c3.4-4,5.8-9.8,7.1-17.3l0-0.2l0-0.3
				c0.1-2,0.2-3.9,0.2-5.7c1.7-8.3,2.5-16.3,2.6-24c0.1-7-0.4-13.7-1.5-20.1c3.7-2.4,7.3-5,10.8-8l11.4-9.8l-14.8,2.4
				c-2.9,0.5-5.7,0.9-8.5,1.2l0.5-0.6c3.7-4.1,7.4-9,10-13.9l3.6-6.9l-7.7,0.7c-4,0.4-7.9,0.7-11.7,0.9c3.8-3.5,7.7-8.6,11.4-16.3
				l3.8-8l-8.6,2c-12.4,2.9-26.7,0.1-42.8-8.4c-13.5-8.5-28.4-12.2-43.9-10.8c-14.5,1.4-29.3,7.3-43.8,18.2
				c-2.2,0.1-4.3,0.4-6.3,0.9c-9.8,2.5-17.5,9.7-22.8,20.4c-5,10.1-7.7,23.5-7.7,39.2c0,12.6,1.8,26.6,5.6,41.5
				c0,1.7,0.1,3.4,0.2,5.2l0,0.3l0,0.2c1.3,7.5,3.7,13.2,7.1,17.3c3,3.5,6.7,5.7,11,6.6c3.6,19.6,10.3,34.4,20.1,44.6
				c2.9,3,6.1,5.7,9.5,7.9l0,0.2c0.4,5.2,0,10.1-1.3,14.7c-0.9,3.3-2.3,6.5-4,9.5c-4.1,1-7.6,1.9-10.7,2.7c-3.5,1-6.4,1.8-8.6,2.6
				c-31.4,3.1-52.9,17.2-68.8,37.4c-15.8,19.9-25.9,45.4-34.9,71.8c-7.6,22.3-7.1,39.6,1.4,51.7c3.5,5,8.3,9,14.3,12.1H4.3
				c-2.3,0-4.3,1.9-4.3,4.3C0,411.9,1.9,413.8,4.3,413.8L4.3,413.8z M349.8,413.8c-2.3,0-4.3-1.9-4.3-4.3c0-2.3,1.9-4.3,4.3-4.3h1.5
				c2.3,0,4.3,1.9,4.3,4.3c0,2.3-1.9,4.3-4.3,4.3H349.8L349.8,413.8z M63.6,358.7c-1-1.2-2.1-2.3-3.1-3.3c-1.4-1.4-2.7-2.7-4.1-3.8
				c-1.8-1.5-2-4.2-0.5-6c1.5-1.8,4.2-2,6-0.5c0.6,0.5,1.1,1,1.7,1.5v-62.9c0-3.9,1.6-7.5,4.2-10.1c2.6-2.6,6.1-4.2,10.1-4.2h82.8
				c-13.5-4.5-26.8-14.1-40.1-28.6c-27.9,3.1-47.1,15.9-61.4,34c-14.9,18.9-24.7,43.6-33.5,69.3c-6.7,19.6-6.6,34.4,0.3,44.2
				c6.4,9.1,18.9,14.4,37.6,15.9V358.7L63.6,358.7z M53.4,339.2c2.1,1.1,2.8,3.7,1.7,5.7c-1.1,2.1-3.7,2.8-5.7,1.7L48,346
				c-2.1-1-3-3.6-1.9-5.7c1-2.1,3.6-3,5.7-1.9l0.8,0.4C52.7,338.9,53,339,53.4,339.2L53.4,339.2z M134.4,108.3
				c-1.2-0.4-2.5-0.9-4-1.5c-2.2-0.8-4.6-1.9-7.3-3.1c-0.5-0.8-1-1.6-1.5-2.3c0.6-10.7,2.3-19.1,5.2-26.1c2.5-6,6-11,10.6-15.7
				c17.9,17.2,41.3,27.9,65.2,29.9c16.6,1.4,33.5-1.4,49-9.2c0.7,5,1,10.2,0.9,15.5l0,0.9c-1.6-1.6-3.5-2.4-5.5-2.7
				c-2.6-0.3-5.2,0.6-7.7,2.4c-1.7,1.3-3.4,3.2-5,5.6c-2.8,0.9-5.3,1.8-7.7,2.9c-2.2,1-4.2,2-6.2,3.2c-5.2-1.5-10.4-2.2-15.7-2.2
				c-5.7,0-11.3,0.9-17,2.6c-6.6-2-13.2-1.9-19.8,0.1c-5.8-1.8-11.6-2.7-17.4-2.7C145.2,106,139.8,106.8,134.4,108.3L134.4,108.3z
				 M150.6,114.5c4.4,0,8.9,0.6,13.3,1.8c0,6.1-0.5,10.7-2.1,13.5c-1.5,2.6-4.6,3.9-10.4,3.8c-5.9-0.1-9-1.6-10.6-4.3
				c-1.7-2.8-2.4-7.3-3.1-13.1C142,115.1,146.3,114.5,150.6,114.5L150.6,114.5z M217.7,116.2c-0.7,5.9-1.5,10.4-3.1,13.3
				c-1.7,2.8-4.8,4.2-10.8,4.2c-5.3,0-8.4-1.3-9.9-4c-1.7-2.8-2.2-7.3-2.3-13.3c4.4-1.2,8.8-1.8,13.3-1.8
				C209.1,114.5,213.4,115.1,217.7,116.2L217.7,116.2z M186.5,133.9c-2.5-4.3-3.4-10.2-3.4-17.7c-3.6-0.7-7.1-0.7-10.7,0.2
				c0,7.6-0.7,13.4-3.2,17.7c-3.2,5.6-8.6,8.2-17.9,8.1c-9.4-0.2-14.5-3-17.8-8.5c-2.7-4.5-3.6-10.5-4.4-18.2
				c-0.4-0.2-0.9-0.3-1.4-0.5c0.3,1,0.5,1.9,0.8,3c0.5,2.3-0.9,4.6-3.1,5.1c-2.3,0.5-4.6-0.9-5.1-3.1c-1.5-6.3-3.7-11.1-6-14.2
				c-0.2-0.2-0.3-0.4-0.5-0.6c-0.6-0.7-1.2-1.3-1.9-1.8c-0.7-0.5-1.3-0.8-1.6-0.8c-0.3,0-0.6,0.3-1,0.9c-1.7,2.5-2.9,7.7-2.8,16
				c0,0.2,0,0.5,0,0.7c0,1.5,0.1,3.1,0.2,4.7c1.1,5.9,2.8,10.2,5.2,13.1c2.1,2.5,4.9,3.9,8.4,4l3.4,0.2l0.6,3.4
				c3.2,19.4,9.3,33.8,18.4,43.3c8.9,9.2,20.7,13.8,35.6,13.8c14.9,0,26.7-4.6,35.6-13.8c9.1-9.5,15.2-23.9,18.4-43.3l0.6-3.4
				l3.4-0.2c3.4-0.2,6.2-1.5,8.4-4c2.4-2.8,4.1-7.2,5.2-13.1c0.1-1.9,0.2-3.6,0.2-5.2l0-0.2c0-8.3-1.1-13.4-2.8-15.9
				c-0.4-0.6-0.7-0.9-1-0.9c-0.4,0-0.9,0.2-1.6,0.8c-1.2,0.9-2.4,2.3-3.5,4.2c-0.1,0.3-0.3,0.6-0.5,0.9c-1.7,2.9-3.2,6.8-4.3,11.5
				c-0.5,2.3-2.8,3.7-5.1,3.1s-3.7-2.8-3.1-5.1c0.4-1.6,0.8-3.2,1.3-4.7c-1,0.4-1.9,0.9-2.8,1.4c-0.9,8.2-1.8,14.5-4.6,19.3
				c-3.3,5.5-8.6,8.3-18.1,8.3C195,142.1,189.7,139.4,186.5,133.9L186.5,133.9z M158.4,123.8c0,1.9-0.8,3.6-2,4.9
				c-1.3,1.3-3,2-4.9,2c-1.9,0-3.6-0.8-4.9-2c-1.3-1.3-2-3-2-4.9c0-1.9,0.8-3.6,2-4.9c1.3-1.3,3-2,4.9-2c1.9,0,3.6,0.8,4.9,2
				C157.6,120.1,158.4,121.9,158.4,123.8L158.4,123.8z M210.5,123.8c0,1.9-0.8,3.6-2,4.9c-1.3,1.3-3,2-4.9,2c-1.9,0-3.6-0.8-4.9-2
				c-1.3-1.3-2-3-2-4.9c0-1.9,0.8-3.6,2-4.9c1.3-1.3,3-2,4.9-2c1.9,0,3.6,0.8,4.9,2C209.7,120.1,210.5,121.9,210.5,123.8
				L210.5,123.8z M290.6,346.6c0.6-0.6,1.3-1.1,1.9-1.7c3.3-2.7,6.6-4.9,10-6.6c2.1-1,4.6-0.2,5.7,1.9c1,2.1,0.2,4.6-1.9,5.7
				c-2.8,1.4-5.5,3.2-8.3,5.5c-2.4,2-4.9,4.5-7.3,7.3v45.7c24.5-0.5,38.8-8.9,42.9-25.3c4.6-18.4-2.6-46.8-21.5-85.2
				c-7.8-13.1-15.6-25.5-27.1-35c-11-9.1-25.7-15.8-47.5-18.1c-13.3,14.5-26.6,24.1-40.1,28.6h76.6c4.6,0,8.8,1.9,11.8,4.9
				c3,3,4.9,7.2,4.9,11.8V346.6L290.6,346.6z M204.6,205.7c-0.1,9.5,2.3,18.4,7.3,26.6c-10.8,7.5-21.6,11.2-32.3,11.2
				c-10.7,0-21.4-3.7-32.3-11.2c2.5-4,4.3-8.2,5.5-12.6c1.2-4.1,1.8-8.4,1.8-12.8c7,2.8,14.8,4.1,23.5,4.1
				C188.1,211.1,196.9,209.3,204.6,205.7L204.6,205.7z M138.4,236.2l0.6,0.5c13.5,10.2,27,15.3,40.6,15.3c13.1,0,26.1-4.7,39.1-14.2
				l8.4,1.5C210.9,255.7,194.9,264,179,264c-16.1,0-32.5-8.5-49-25.5c0.7-0.2,1.4-0.4,2.2-0.6C134.1,237.3,136.2,236.8,138.4,236.2
				L138.4,236.2z M102.3,98.6c-1-6.9-1.4-13.5-1.4-19.7c0-14.3,2.4-26.4,6.8-35.4c4.1-8.4,10-14,17.3-15.8c1.8-0.5,3.7-0.7,5.7-0.7
				l1.5,0l1.1-0.9c13.5-10.4,27.2-16.1,40.5-17.3c13.6-1.3,26.9,2.1,38.8,9.6l0.3,0.2c14.5,7.7,27.8,11.2,39.9,10.5
				c-5.2,7.8-10.5,10.6-14.5,12.7l-0.6,0.3c-1.6-0.1-3.2-0.2-4.7-0.3c-9.8-0.8-19.3-3-29.6-7.5c-4.3-1.8-7.8-3.8-11.1-5.5
				c-10.3-5.6-17.6-9.5-34.9-6.2c-2.4,0.5-4.8,1.1-7.2,1.9c-2.5,0.8-4.8,1.8-7.1,2.8c-2.1,1-3,3.5-2,5.7c1,2.1,3.5,3,5.7,2
				c2.1-1,4.1-1.8,6.1-2.5c2-0.7,4-1.2,6.1-1.6c14.3-2.7,20.5,0.6,29.2,5.3c3.4,1.8,7.1,3.8,11.8,5.9c11.3,4.9,21.7,7.3,32.3,8.1
				c8,0.7,16.1,0.5,24.8-0.1c-1.4,1.9-2.8,3.6-4.4,5.3c-3.2,3.5-6.3,6.2-8.8,7.7c-3.7,0.2-7.3,0.3-10.8,0.4
				c-10.3,0-19.7-0.9-28.2-2.8c-2.3-0.5-4.5,0.9-5,3.2c-0.5,2.3,0.9,4.5,3.2,5c9.1,2,19.1,3,30,3c3.9,0,7.9-0.1,12-0.4
				c0.2,0,0.3,0,0.5,0c1.8-0.1,3.6-0.3,5.5-0.4c-14.9,8.3-31.5,11.4-47.8,10.1c-23.2-1.9-45.9-12.8-62.8-30.3l-2.9-3l-3,2.8
				c-6.9,6.4-12,13.1-15.6,21.5c-2.7,6.4-4.5,13.8-5.4,22.5c-1.4-0.5-2.8-0.7-4.3-0.5C106.7,94.4,104.2,95.9,102.3,98.6L102.3,98.6z
				 M134.2,32.3c1.9-1.3,4.6-0.8,5.9,1.2c1.3,1.9,0.8,4.6-1.2,5.9c-0.3,0.2-0.6,0.4-0.9,0.6c-0.4,0.3-0.7,0.5-0.9,0.7
				c-1.9,1.4-4.5,0.9-5.9-1c-1.4-1.9-0.9-4.5,1-5.9c0.4-0.3,0.8-0.6,1.1-0.8C133.5,32.8,133.9,32.5,134.2,32.3L134.2,32.3z
				 M195.5,58c2.2,0.7,3.4,3.1,2.7,5.4c-0.7,2.2-3.1,3.4-5.4,2.7c-1.5-0.5-3-1.1-4.5-1.7c-1.6-0.6-3-1.3-4.4-1.9
				c-2.1-1-3.1-3.5-2.1-5.6c1-2.1,3.5-3.1,5.6-2.1c1.4,0.6,2.7,1.2,3.9,1.7C192.7,57,194.1,57.5,195.5,58L195.5,58z M179.6,50.5
				c2,1.2,2.6,3.9,1.3,5.8c-1.2,2-3.9,2.6-5.8,1.3c-0.4-0.2-0.7-0.5-1.2-0.7c-0.2-0.2-0.6-0.4-1.2-0.8c-1.9-1.3-2.4-3.9-1.1-5.9
				s3.9-2.4,5.9-1.1c0.2,0.1,0.5,0.4,1,0.7C178.8,50,179.2,50.3,179.6,50.5L179.6,50.5z M224.7,97.6c2.1,1.1,2.8,3.7,1.7,5.7
				c-1.1,2.1-3.7,2.8-5.7,1.7c-3-1.6-6.4-2.7-10-3.2c-3.7-0.5-7.8-0.4-12.3,0.2c-2.3,0.3-4.5-1.3-4.8-3.6c-0.3-2.3,1.3-4.5,3.6-4.8
				c5.2-0.7,10-0.8,14.5-0.2C216.5,94.1,220.8,95.5,224.7,97.6L224.7,97.6z M136.6,105.1c-2.1,1.1-4.6,0.3-5.7-1.7
				c-1.1-2.1-0.3-4.6,1.7-5.7c3.9-2.1,8.2-3.5,12.9-4.1c4.5-0.6,9.4-0.5,14.5,0.2c2.3,0.3,3.9,2.5,3.6,4.8c-0.3,2.3-2.5,3.9-4.8,3.6
				c-4.4-0.6-8.5-0.7-12.3-0.2C143,102.4,139.7,103.4,136.6,105.1L136.6,105.1z M72.1,404.4h210V286.2c0-2.3-0.9-4.3-2.4-5.8
				c-1.5-1.5-3.6-2.4-5.8-2.4h-196c-1.6,0-3,0.6-4.1,1.7c-1,1-1.7,2.5-1.7,4.1V404.4z"/>
		</g>
	</g>
</g>
</svg>
